<svg width="24" height="25" viewBox="0 0 24 25" fill="none" xmlns="http://www.w3.org/2000/svg">
<path fill-rule="evenodd" clip-rule="evenodd" d="M16.4109 3.26859L16.4119 4.01822C19.1665 4.23411 20.9862 6.11117 20.9891 8.98973L21 17.4155C21.0039 20.5539 19.0322 22.485 15.8718 22.49L8.15188 22.5C5.01119 22.504 3.01482 20.527 3.01087 17.3795L3.00001 9.0527C2.99606 6.15515 4.75153 4.28309 7.50617 4.03021L7.50518 3.28059C7.5042 2.84081 7.83001 2.50997 8.26444 2.50997C8.69886 2.50897 9.02468 2.83881 9.02567 3.27859L9.02666 3.97824L14.8914 3.97024L14.8904 3.27059C14.8894 2.83081 15.2152 2.50098 15.6496 2.49998C16.0742 2.49898 16.4099 2.82881 16.4109 3.26859ZM4.52158 9.3615L19.4697 9.34151V8.99168C19.4273 6.84276 18.3491 5.71533 16.4139 5.54741L16.4149 6.31703C16.4149 6.74681 16.0802 7.08764 15.6557 7.08764C15.2212 7.08864 14.8944 6.74881 14.8944 6.31902L14.8935 5.50943L9.02873 5.51743L9.02971 6.32602C9.02971 6.7568 8.70488 7.09663 8.27046 7.09663C7.83603 7.09763 7.50923 6.7588 7.50923 6.32802L7.50824 5.55841C5.58295 5.75131 4.51763 6.88274 4.52059 9.05066L4.52158 9.3615ZM15.24 13.9041V13.9151C15.2499 14.3749 15.6251 14.7237 16.0802 14.7137C16.5245 14.7027 16.879 14.3219 16.8691 13.8622C16.8484 13.4224 16.492 13.0635 16.0486 13.0645C15.5945 13.0745 15.239 13.4444 15.24 13.9041ZM16.0556 18.3919C15.6014 18.3819 15.2351 18.0031 15.2341 17.5434C15.2242 17.0836 15.5886 16.7028 16.0427 16.6918H16.0526C16.5167 16.6918 16.8928 17.0706 16.8928 17.5404C16.8938 18.0101 16.5186 18.3909 16.0556 18.3919ZM11.1722 13.9203C11.1919 14.3801 11.5681 14.7389 12.0222 14.7189C12.4665 14.6979 12.821 14.3181 12.8012 13.8583C12.7904 13.4086 12.4251 13.0587 11.9808 13.0597C11.5266 13.0797 11.1712 13.4605 11.1722 13.9203ZM12.0261 18.3469C11.572 18.3669 11.1968 18.0081 11.176 17.5483C11.176 17.0886 11.5305 16.7088 11.9847 16.6878C12.429 16.6868 12.7953 17.0366 12.8051 17.4854C12.8259 17.9461 12.4704 18.326 12.0261 18.3469ZM7.10451 13.9552C7.12426 14.415 7.50043 14.7748 7.9546 14.7538C8.3989 14.7338 8.75335 14.353 8.73262 13.8933C8.72275 13.4435 8.35743 13.0937 7.91215 13.0947C7.45798 13.1147 7.10353 13.4955 7.10451 13.9552ZM7.95825 18.3519C7.50408 18.3729 7.1289 18.0131 7.10816 17.5533C7.10718 17.0935 7.46261 16.7127 7.91679 16.6927C8.36108 16.6917 8.72738 17.0415 8.73725 17.4913C8.75799 17.9511 8.40354 18.3319 7.95825 18.3519Z" fill="#2C14DD"/>
</svg>
