<svg width="24" height="32" viewBox="0 0 24 32" fill="none" xmlns="http://www.w3.org/2000/svg">
<g clip-path="url(#clip0_2048_393)">
<path fill-rule="evenodd" clip-rule="evenodd" d="M21 15.25V16.75C21 17.1642 20.6642 17.5 20.25 17.5H3.75C3.33579 17.5 3 17.1642 3 16.75V15.25C3 14.8358 3.33579 14.5 3.75 14.5H20.25C20.6642 14.5 21 14.8358 21 15.25ZM20.25 20.5H3.75C3.33579 20.5 3 20.8358 3 21.25V22.75C3 23.1642 3.33579 23.5 3.75 23.5H20.25C20.6642 23.5 21 23.1642 21 22.75V21.25C21 20.8358 20.6642 20.5 20.25 20.5ZM20.25 8.5H3.75C3.33579 8.5 3 8.83579 3 9.25V10.75C3 11.1642 3.33579 11.5 3.75 11.5H20.25C20.6642 11.5 21 11.1642 21 10.75V9.25C21 8.83579 20.6642 8.5 20.25 8.5Z" fill="#0D141C"/>
</g>
<defs>
<clipPath id="clip0_2048_393">
<rect width="24" height="24" fill="white" transform="translate(0 4)"/>
</clipPath>
</defs>
</svg>
