<svg width="18" height="18" viewBox="0 0 18 18" fill="none" xmlns="http://www.w3.org/2000/svg">
<mask id="mask0_116_2556" style="mask-type:alpha" maskUnits="userSpaceOnUse" x="1" y="0" width="16" height="18">
<path d="M9 0L16.7942 4.5V13.5L9 18L1.20577 13.5V4.5L9 0Z" fill="#D9D9D9"/>
<path d="M9 0L16.7942 4.5V13.5L9 18L1.20577 13.5V4.5L9 0Z" fill="url(#paint0_linear_116_2556)"/>
</mask>
<g mask="url(#mask0_116_2556)">
<path d="M9 0L16.7942 4.5V13.5L9 18L1.20577 13.5V4.5L9 0Z" fill="#0DC4EC"/>
<path d="M3.75 -3L11.5442 1.5V10.5L3.75 15L-4.04423 10.5V1.5L3.75 -3Z" fill="#101216"/>
<path d="M3.75 -3L11.5442 1.5V10.5L3.75 15L-4.04423 10.5V1.5L3.75 -3Z" fill="#323AFD"/>
<path d="M6.75 6.75L13.8947 10.875V19.125L6.75 23.25L-0.39471 19.125V10.875L6.75 6.75Z" fill="#101216"/>
<path d="M6.75 6.75L13.8947 10.875V19.125L6.75 23.25L-0.39471 19.125V10.875L6.75 6.75Z" fill="#A4EC0D"/>
</g>
<defs>
<linearGradient id="paint0_linear_116_2556" x1="3.93751" y1="1.125" x2="16.5" y2="17.625" gradientUnits="userSpaceOnUse">
<stop stop-color="#323AFD"/>
<stop offset="0.40625" stop-color="#B131FF"/>
<stop offset="1" stop-color="#FC1F1F"/>
</linearGradient>
</defs>
</svg>
