<svg width="18" height="18" viewBox="0 0 18 18" fill="none" xmlns="http://www.w3.org/2000/svg">
<path d="M5.814 0H1.986C0.889162 0 0 0.889162 0 1.986V5.814C0 6.91084 0.889162 7.8 1.986 7.8H5.814C6.91084 7.8 7.8 6.91084 7.8 5.814V1.986C7.8 0.889162 6.91084 0 5.814 0Z" fill="#2C14DD"/>
<path d="M16.014 0H12.186C11.0891 0 10.2 0.889162 10.2 1.986V5.814C10.2 6.91084 11.0891 7.8 12.186 7.8H16.014C17.1108 7.8 18 6.91084 18 5.814V1.986C18 0.889162 17.1108 0 16.014 0Z" fill="#2C14DD"/>
<path d="M5.814 10.2H1.986C0.889162 10.2 0 11.0891 0 12.186V16.014C0 17.1108 0.889162 18 1.986 18H5.814C6.91084 18 7.8 17.1108 7.8 16.014V12.186C7.8 11.0891 6.91084 10.2 5.814 10.2Z" fill="#2C14DD"/>
<path d="M14.1 18C16.2539 18 18 16.2539 18 14.1C18 11.9461 16.2539 10.2 14.1 10.2C11.946 10.2 10.2 11.9461 10.2 14.1C10.2 16.2539 11.946 18 14.1 18Z" fill="#2C14DD"/>
</svg>
