<svg width="25" height="32" viewBox="0 0 25 32" fill="none" xmlns="http://www.w3.org/2000/svg">
<g clip-path="url(#clip0_2048_400)">
<path fill-rule="evenodd" clip-rule="evenodd" d="M21.2002 22.75H20.4502V7.75C20.4502 7.33579 20.1144 7 19.7002 7H14.4502C14.036 7 13.7002 7.33579 13.7002 7.75V11.5H9.2002C8.78598 11.5 8.4502 11.8358 8.4502 12.25V16H4.7002C4.28598 16 3.9502 16.3358 3.9502 16.75V22.75H3.2002C2.78598 22.75 2.4502 23.0858 2.4502 23.5C2.4502 23.9142 2.78598 24.25 3.2002 24.25H21.2002C21.6144 24.25 21.9502 23.9142 21.9502 23.5C21.9502 23.0858 21.6144 22.75 21.2002 22.75ZM15.2002 8.5H18.9502V22.75H15.2002V8.5ZM9.9502 13H13.7002V22.75H9.9502V13ZM5.4502 17.5H8.4502V22.75H5.4502V17.5Z" fill="#4F7396"/>
</g>
<defs>
<clipPath id="clip0_2048_400">
<rect width="24" height="24" fill="white" transform="translate(0.200195 4)"/>
</clipPath>
</defs>
</svg>
