<svg width="20" height="22" viewBox="0 0 20 22" fill="none" xmlns="http://www.w3.org/2000/svg">
<path fill-rule="evenodd" clip-rule="evenodd" d="M18.9734 6.62358L18.351 5.54349C17.8244 4.62957 16.6575 4.31429 15.7423 4.83869V4.83869C15.3067 5.09531 14.7868 5.16812 14.2975 5.04106C13.8081 4.91399 13.3893 4.59749 13.1336 4.16134C12.9691 3.88412 12.8806 3.56836 12.8773 3.24601V3.24601C12.8921 2.72919 12.6972 2.22837 12.3368 1.85764C11.9764 1.48691 11.4813 1.27783 10.9643 1.27805H9.71025C9.20372 1.27804 8.71806 1.47988 8.36075 1.83891C8.00343 2.19795 7.80392 2.68456 7.80636 3.19109V3.19109C7.79134 4.23689 6.93923 5.07678 5.89331 5.07667C5.57096 5.07332 5.2552 4.98491 4.97798 4.82038V4.82038C4.06281 4.29598 2.89586 4.61126 2.36929 5.52519L1.70109 6.62358C1.17516 7.53636 1.48615 8.70258 2.39675 9.23228V9.23228C2.98865 9.57401 3.35328 10.2056 3.35328 10.889C3.35328 11.5725 2.98865 12.204 2.39675 12.5458V12.5458C1.4873 13.0719 1.17598 14.2353 1.70109 15.1453V15.1453L2.33267 16.2346C2.57939 16.6798 2.99335 17.0083 3.48294 17.1474C3.97253 17.2866 4.49739 17.2249 4.94137 16.976V16.976C5.37783 16.7213 5.89794 16.6515 6.38609 16.7822C6.87424 16.9128 7.28998 17.233 7.54091 17.6716C7.70545 17.9489 7.79386 18.2646 7.7972 18.587V18.587C7.7972 19.6435 8.6537 20.5 9.71025 20.5H10.9643C12.0172 20.5 12.8723 19.6491 12.8773 18.5961V18.5961C12.8748 18.088 13.0756 17.6 13.4349 17.2407C13.7942 16.8814 14.2822 16.6806 14.7903 16.6831C15.1119 16.6917 15.4264 16.7797 15.7057 16.9394V16.9394C16.6185 17.4653 17.7847 17.1543 18.3144 16.2437V16.2437L18.9734 15.1453C19.2285 14.7075 19.2985 14.186 19.1679 13.6963C19.0374 13.2067 18.717 12.7893 18.2778 12.5366V12.5366C17.8385 12.2839 17.5181 11.8665 17.3876 11.3769C17.257 10.8873 17.327 10.3658 17.5821 9.92793C17.748 9.63831 17.9881 9.39817 18.2778 9.23228V9.23228C19.1829 8.70286 19.4932 7.54346 18.9734 6.63274V6.63274V6.62358Z" stroke="#64748B" stroke-width="1.5" stroke-linecap="round" stroke-linejoin="round"/>
<circle cx="10.3418" cy="10.889" r="2.63616" stroke="#64748B" stroke-width="1.5" stroke-linecap="round" stroke-linejoin="round"/>
</svg>
