<svg width="25" height="32" viewBox="0 0 25 32" fill="none" xmlns="http://www.w3.org/2000/svg">
<g clip-path="url(#clip0_2048_386)">
<path fill-rule="evenodd" clip-rule="evenodd" d="M7.55005 13.75C7.55005 13.3358 7.88584 13 8.30005 13H17.3C17.7143 13 18.05 13.3358 18.05 13.75C18.05 14.1642 17.7143 14.5 17.3 14.5H8.30005C7.88584 14.5 7.55005 14.1642 7.55005 13.75ZM8.30005 17.5H17.3C17.7143 17.5 18.05 17.1642 18.05 16.75C18.05 16.3358 17.7143 16 17.3 16H8.30005C7.88584 16 7.55005 16.3358 7.55005 16.75C7.55005 17.1642 7.88584 17.5 8.30005 17.5ZM22.55 9.25V23.5C22.5499 23.7599 22.4152 24.0012 22.1941 24.1378C21.9729 24.2743 21.6969 24.2866 21.4644 24.1703L18.8 22.8381L16.1357 24.1703C15.9244 24.276 15.6757 24.276 15.4644 24.1703L12.8 22.8381L10.1357 24.1703C9.92441 24.276 9.67569 24.276 9.46442 24.1703L6.80005 22.8381L4.13567 24.1703C3.90325 24.2866 3.62717 24.2743 3.40602 24.1378C3.18488 24.0012 3.05019 23.7599 3.05005 23.5V9.25C3.05005 8.42157 3.72162 7.75 4.55005 7.75H21.05C21.8785 7.75 22.55 8.42157 22.55 9.25ZM21.05 9.25H4.55005V22.2869L6.46442 21.3288C6.67569 21.223 6.92441 21.223 7.13567 21.3288L9.80005 22.6619L12.4644 21.3288C12.6757 21.223 12.9244 21.223 13.1357 21.3288L15.8 22.6619L18.4644 21.3288C18.6757 21.223 18.9244 21.223 19.1357 21.3288L21.05 22.2869V9.25Z" fill="#4F7396"/>
</g>
<defs>
<clipPath id="clip0_2048_386">
<rect width="24" height="24" fill="white" transform="translate(0.800049 4)"/>
</clipPath>
</defs>
</svg>
